<svg width="21" height="21" viewBox="0 0 21 21" fill="none" xmlns="http://www.w3.org/2000/svg">
<path d="M6.79199 8.80469C7.27499 8.80469 7.66699 8.41269 7.66699 7.92969V4.51719C7.66699 2.99163 8.90818 1.75 10.4337 1.75C11.9593 1.75 13.2009 2.99163 13.2009 4.51719V7.92969C13.2009 8.41269 13.5925 8.80469 14.0759 8.80469C14.5589 8.80469 14.9509 8.41269 14.9509 7.92969V4.51719C14.9514 2.0265 12.9249 0 10.4337 0C7.94349 0 5.91699 2.0265 5.91699 4.51719V7.92969C5.91699 8.41269 6.30899 8.80469 6.79199 8.80469Z" fill="#4F60FF"/>
<path d="M20.4706 6.8385H15.8261V7.92963C15.8261 8.89475 15.0413 9.67963 14.0761 9.67963C13.111 9.67963 12.3261 8.89475 12.3261 7.92963V6.8385H8.54219V7.92963C8.54219 8.89475 7.75732 9.67963 6.79219 9.67963C5.82707 9.67963 5.04219 8.89475 5.04219 7.92963V6.8385H0.345629C0.104129 6.8385 -0.0450583 7.02881 0.0122542 7.26331L3.07388 19.7308C3.2585 20.4316 3.99613 20.9999 4.72063 20.9999H16.0956C16.821 20.9999 17.5578 20.4316 17.7433 19.7308L20.804 7.26331C20.8613 7.02838 20.7126 6.8385 20.4706 6.8385Z" fill="#4F60FF"/>
</svg>
