<svg width="32" height="32" viewBox="0 0 32 32" fill="none" xmlns="http://www.w3.org/2000/svg">
<g clip-path="url(#clip0_2_104)">
<path d="M16 0C7.16306 0 0 7.16306 0 16C0 24.8369 7.16306 32 16 32C24.8369 32 32 24.8369 32 16C32 7.16306 24.8369 0 16 0ZM16 29.5C8.54394 29.5 2.5 23.4561 2.5 16C2.5 8.54394 8.54394 2.5 16 2.5C23.4561 2.5 29.5 8.54394 29.5 16C29.5 23.4561 23.4561 29.5 16 29.5Z" fill="#4F80FF"/>
<path d="M19.7402 12.3974C19.751 12.3281 19.7559 12.2636 19.7559 12.2041C19.7559 11.6542 19.4121 11.3808 18.7246 11.3808C18.3946 11.3808 18.1719 11.4374 18.0566 11.5488C17.9394 11.6621 17.8594 11.8858 17.8125 12.2207C17.5488 11.8496 17.2832 11.5996 17.0156 11.4697C16.7695 11.3515 16.417 11.2929 15.9609 11.2929C14.7861 11.2929 13.7666 11.8906 12.9062 13.0849C12.1132 14.1836 11.7177 15.3574 11.7177 16.6055C11.7177 17.5801 11.9746 18.4355 12.4893 19.1739C13.0596 19.9874 13.8056 20.3936 14.7246 20.3936C15.5117 20.3936 16.2676 20.1114 16.9912 19.5469C17.3175 20.1114 17.8751 20.3936 18.6621 20.3936C20.1524 20.3936 21.4288 19.7648 22.4883 18.5059C23.4961 17.3086 24 15.9316 24 14.3769C24 12.5176 23.2178 10.9668 21.6533 9.72556C20.2041 8.57619 18.5469 8 16.6777 8C14.2461 8 12.2051 8.76856 10.5518 10.3066C8.85056 11.8926 8 13.916 8 16.3789C8 18.8955 8.87206 20.8281 10.6143 22.1776C12.1787 23.3936 14.2305 24 16.7715 24C17.8535 24 18.9082 23.8311 19.9375 23.4912C21.0664 23.1211 21.9951 22.5938 22.7246 21.9101C22.9601 21.6846 23.1866 21.4101 23.4014 21.0879C23.6699 20.6943 23.8027 20.3769 23.8027 20.1357C23.8027 19.9531 23.7392 19.7901 23.6104 19.6465C23.4824 19.5039 23.3281 19.4326 23.1505 19.4326C22.8135 19.4326 22.5304 19.5517 22.2989 19.7871C21.9171 20.1972 21.6329 20.5097 21.4492 20.7246C20.1992 21.8164 18.6465 22.3623 16.7871 22.3623C14.793 22.3623 13.1973 21.8731 12.001 20.8946C10.6934 19.8253 10.0401 18.293 10.0401 16.2989C10.0401 14.3634 10.6612 12.7462 11.9062 11.4474C13.1504 10.1494 14.7178 9.5 16.6064 9.5C18.0928 9.5 19.3281 9.92188 20.3144 10.7676C21.3711 11.6641 21.8974 12.8574 21.8974 14.3457C21.8974 15.125 21.7646 15.8516 21.4961 16.5224C21.1973 17.2754 20.7636 17.8554 20.1973 18.2636C19.7715 18.5693 19.4384 18.7226 19.1973 18.7226C18.9346 18.7226 18.8037 18.5995 18.8037 18.3525C18.8037 18.2499 18.8711 17.7773 19.0088 16.9325L19.7402 12.3974ZM16.709 16.8486C16.2256 18.1894 15.7109 18.8604 15.166 18.8604C14.3516 18.8604 13.9443 18.3409 13.9443 17.3008C13.9443 16.4932 14.1777 15.584 14.6464 14.5703C15.1923 13.374 15.8134 12.7764 16.5117 12.7764C16.8008 12.7764 17.0156 12.9326 17.1572 13.2441C17.2725 13.4824 17.3301 13.7656 17.3301 14.0938C17.3301 14.7949 17.124 15.7129 16.709 16.8486Z" fill="#4F80FF"/>
</g>
<defs>
<clipPath id="clip0_2_104">
<rect width="32" height="32" fill="white"/>
</clipPath>
</defs>
</svg>
